<?xml version="1.0" standalone="no"?>
<!DOCTYPE svg PUBLIC "-//W3C//DTD SVG 20010904//EN"
 "http://www.w3.org/TR/2001/REC-SVG-20010904/DTD/svg10.dtd">
<svg version="1.0" xmlns="http://www.w3.org/2000/svg"
 width="970.000000pt" height="970.000000pt" viewBox="0 0 970.000000 970.000000"
 preserveAspectRatio="xMidYMid meet">
<metadata>
Created by potrace 1.11, written by Peter Selinger 2001-2013
</metadata>
<g transform="translate(0.000000,970.000000) scale(0.100000,-0.100000)"
fill="#000000" stroke="none">
<path d="M4738 8145 c2 -14 6 -25 8 -25 2 0 4 11 4 25 0 14 -4 25 -9 25 -4 0
-6 -11 -3 -25z"/>
<path d="M4732 8044 c4 -21 22 -23 26 -1 2 10 -3 17 -13 17 -10 0 -15 -6 -13
-16z"/>
<path d="M6210 7972 c8 -45 17 -62 32 -62 6 0 3 11 -6 25 -9 13 -16 36 -16 50
0 14 -4 25 -9 25 -4 0 -5 -17 -1 -38z"/>
<path d="M4560 7988 c0 -18 18 -34 28 -24 3 4 -2 14 -11 23 -16 16 -17 16 -17
1z"/>
<path d="M6210 7839 c0 -23 37 -76 46 -66 3 2 -7 24 -21 48 -22 39 -25 41 -25
18z"/>
<path d="M4570 7800 c0 -5 5 -10 10 -10 6 0 10 5 10 10 0 6 -4 10 -10 10 -5 0
-10 -4 -10 -10z"/>
<path d="M5230 7767 c0 -12 35 -57 44 -57 7 0 -6 44 -17 58 -12 16 -27 15 -27
-1z"/>
<path d="M3301 7644 c0 -11 3 -14 6 -6 3 7 2 16 -1 19 -3 4 -6 -2 -5 -13z"/>
<path d="M3820 7568 c0 -26 21 -68 63 -125 46 -62 67 -73 67 -36 0 18 -13 38
-42 64 -22 22 -52 56 -64 76 -14 23 -23 31 -24 21z"/>
<path d="M3804 6770 c0 -80 2 -112 3 -72 2 39 2 105 0 145 -1 39 -3 7 -3 -73z"/>
<path d="M5330 6550 c0 -25 4 -30 25 -30 15 0 25 6 25 14 0 28 -12 46 -31 46
-14 0 -19 -7 -19 -30z"/>
<path d="M0 4880 l0 -1600 1601 0 1601 0 29 29 29 29 0 297 c0 206 -3 294 -11
290 -33 -21 -96 48 -91 99 1 10 -2 24 -8 31 -18 21 16 53 65 61 l45 6 0 1150
0 1150 -29 29 -29 29 -1601 0 -1601 0 0 -1600z m1360 1210 c-20 -13 -40 -13
-40 0 0 6 12 10 28 10 21 0 24 -2 12 -10z m-59 -34 c45 1 46 1 26 -19 -25 -25
-7 -48 23 -29 27 16 30 15 30 -10 0 -12 -12 -32 -27 -45 l-28 -22 35 10 c65
20 76 21 89 5 11 -13 9 -16 -13 -22 -34 -8 -35 -46 -2 -72 l25 -19 -22 -31
c-23 -33 -43 -42 -92 -42 -48 0 -74 10 -68 26 3 8 0 14 -6 14 -6 0 -11 -4 -11
-10 0 -5 -8 -10 -19 -10 -10 0 -33 -16 -52 -35 -33 -34 -75 -52 -50 -21 9 11
6 15 -14 20 -16 4 -25 13 -25 26 0 20 -15 28 -22 12 -4 -11 -98 -24 -98 -14 0
4 5 13 12 20 21 21 -21 14 -53 -9 -36 -26 -56 -16 -35 17 32 47 11 108 -23 67
-9 -11 -31 -29 -48 -39 -18 -10 -33 -22 -33 -26 0 -4 -6 -8 -13 -8 -8 0 -13
10 -13 22 1 36 -29 33 -47 -4 -15 -31 -15 -34 0 -45 18 -14 14 -16 -34 -13
-27 1 -35 -3 -43 -24 -5 -14 -17 -26 -25 -26 -9 0 -25 -19 -36 -45 -21 -49
-45 -52 -35 -5 12 61 149 230 212 263 16 8 38 24 48 36 11 12 29 21 41 21 12
0 49 11 83 25 34 14 77 25 96 25 19 0 47 5 61 12 19 8 31 8 50 0 21 -10 28 -8
50 14 19 18 31 23 43 18 9 -5 38 -8 63 -8z m175 -34 c-3 -5 -15 -12 -26 -15
-25 -6 -27 18 -2 32 18 11 38 -1 28 -17z m683 -160 c25 -21 60 -46 76 -55 17
-8 48 -31 70 -51 45 -41 55 -44 62 -16 3 11 14 20 24 20 16 0 18 -6 13 -43 -6
-39 -4 -44 20 -55 14 -6 26 -17 26 -25 0 -20 -30 -57 -46 -57 -18 0 -18 -15 2
-45 10 -15 12 -25 5 -25 -6 0 -11 -4 -11 -10 0 -5 10 -10 23 -10 28 0 48 -13
39 -25 -4 -6 -33 -19 -65 -29 -71 -24 -94 -15 -89 33 3 28 1 31 -25 31 -40 0
-57 14 -50 40 4 17 1 24 -14 27 -16 4 -19 11 -15 29 3 12 2 26 -4 29 -5 3 -10
19 -10 35 0 18 -11 42 -30 63 -16 19 -30 45 -30 57 0 27 -49 98 -72 106 -10 3
-18 10 -18 16 0 23 74 -2 119 -40z m-519 -74 c-84 -23 -86 -23 -71 -5 9 12 28
17 60 16 l46 -1 -35 -10z m-330 -64 c-16 -18 -81 -16 -88 4 -2 8 11 12 48 12
46 0 51 -2 40 -16z m260 6 c-19 -13 -30 -13 -30 0 0 6 10 10 23 10 18 0 19 -2
7 -10z m194 -126 c6 -16 -11 -44 -44 -71 -19 -16 -63 -16 -78 -1 -20 20 -14
28 19 28 22 0 39 9 57 30 30 34 37 36 46 14z m177 -10 c49 -30 50 -57 2 -62
-20 -2 -34 -10 -38 -22 -3 -10 -13 -20 -23 -24 -9 -3 -25 -11 -34 -18 -21 -16
-36 -3 -22 20 6 9 9 33 6 53 -3 29 1 41 19 58 29 27 41 27 90 -5z m204 -99
c-22 -18 -32 -21 -42 -13 -11 9 -9 13 9 23 13 7 32 13 43 14 17 0 16 -3 -10
-24z m-1590 -35 c3 -5 1 -10 -4 -10 -6 0 -11 5 -11 10 0 6 2 10 4 10 3 0 8 -4
11 -10z m1515 0 c0 -6 -7 -13 -15 -16 -30 -12 -4 -22 32 -13 21 5 49 9 62 9
20 0 21 -2 11 -15 -10 -13 -9 -15 11 -15 13 0 30 -4 37 -9 22 -14 -15 -19
-109 -14 -99 4 -131 -1 -123 -22 4 -10 0 -15 -11 -15 -11 0 -15 5 -12 14 4 9
-4 16 -21 21 l-27 7 45 39 c35 30 54 38 83 39 20 0 37 -5 37 -10z m-1250 -20
c15 -27 62 -50 105 -50 19 0 35 -4 35 -9 0 -14 -20 -17 -88 -15 -34 1 -65 -2
-67 -6 -3 -4 18 -25 45 -46 54 -41 66 -63 52 -91 -5 -10 -15 -36 -22 -58 -7
-22 -22 -51 -34 -65 -58 -65 -86 -122 -86 -175 0 -65 17 -115 39 -115 9 0 30
23 49 54 29 49 64 77 79 62 3 -3 -5 -21 -17 -41 -19 -30 -21 -41 -11 -61 15
-35 33 -38 72 -15 42 26 69 27 69 4 0 -10 6 -29 13 -43 12 -23 11 -28 -20 -57
-31 -29 -60 -43 -125 -57 -26 -6 -28 -10 -28 -59 -1 -28 -7 -65 -14 -82 l-13
-30 -60 60 c-55 54 -63 69 -91 155 -61 183 -75 324 -50 498 10 74 9 84 -6 101
-31 34 -2 91 45 91 29 0 38 13 19 25 -20 12 -10 34 18 38 63 9 81 7 92 -13z
m1704 -23 c13 -9 16 -20 11 -40 -10 -37 -22 -42 -46 -21 -13 12 -32 17 -51 15
-30 -3 -88 16 -88 28 0 4 15 8 33 8 17 1 50 5 72 11 22 5 43 10 46 11 3 0 13
-5 23 -12z m-36 -95 c2 -12 17 -31 33 -42 16 -12 29 -30 29 -39 0 -16 -6 -18
-47 -13 -62 6 -73 16 -67 59 7 60 45 85 52 35z m-219 -58 c49 -10 39 -34 -13
-34 -45 0 -63 11 -51 30 7 12 21 12 64 4z m190 -73 l42 -18 -51 -7 c-57 -8
-70 -3 -70 25 0 24 25 25 79 0z m-1229 -122 c0 -30 -118 -179 -142 -179 -20 0
-5 34 31 72 22 22 45 55 52 72 7 17 17 37 22 44 15 19 37 14 37 -9z m1430 -18
c57 -28 79 -61 41 -61 -11 0 -25 8 -30 18 -5 10 -30 29 -55 42 -25 13 -46 25
-46 27 0 10 42 -1 90 -26z m-720 -173 c0 -13 -23 -5 -28 10 -2 7 2 10 12 6 9
-3 16 -11 16 -16z m-820 -43 c0 -8 -7 -15 -16 -15 -14 0 -14 3 -4 15 7 8 14
15 16 15 2 0 4 -7 4 -15z m1560 -15 c0 -5 -4 -10 -10 -10 -5 0 -10 5 -10 10 0
6 5 10 10 10 6 0 10 -4 10 -10z m-1390 -94 c0 -21 -53 -56 -85 -56 -35 0 -114
20 -121 31 -10 17 62 37 134 38 56 1 72 -2 72 -13z m810 -246 c0 -5 -2 -10 -4
-10 -3 0 -8 5 -11 10 -3 6 -1 10 4 10 6 0 11 -4 11 -10z m-1220 -41 c0 -6 -4
-7 -10 -4 -5 3 -10 11 -10 16 0 6 5 7 10 4 6 -3 10 -11 10 -16z m937 -371 c-3
-8 -6 -5 -6 6 -1 11 2 17 5 13 3 -3 4 -12 1 -19z m91 -75 c3 -34 -1 -43 -22
-57 -16 -10 -26 -26 -26 -41 0 -28 -17 -42 -33 -26 -8 8 -17 4 -34 -16 -19
-24 -24 -26 -33 -13 -5 8 -10 38 -10 65 0 59 22 99 50 90 11 -4 26 2 37 13 41
44 67 38 71 -15z m723 -14 c34 -18 6 -36 -56 -37 -62 0 -71 12 -22 33 39 17
53 18 78 4z m486 -94 c3 -9 3 -19 -1 -22 -7 -7 -36 16 -36 28 0 15 30 10 37
-6z m-1477 -361 c0 -8 -4 -12 -10 -9 -5 3 -10 10 -10 16 0 5 5 9 10 9 6 0 10
-7 10 -16z"/>
<path d="M996 5864 c-10 -26 -7 -34 13 -34 23 0 34 23 18 39 -15 15 -24 14
-31 -5z"/>
<path d="M3350 3227 c-42 -21 -50 -51 -50 -199 0 -115 2 -136 14 -132 19 7 58
-32 54 -54 -2 -9 -18 -20 -36 -26 l-32 -9 0 -144 0 -143 24 6 c28 7 46 -17 46
-60 0 -79 29 -73 122 23 59 62 86 82 120 91 23 7 49 14 56 16 7 2 17 17 23 32
5 16 22 35 36 41 22 10 24 16 19 42 -8 42 16 85 56 98 56 19 75 43 88 107 6
32 16 76 22 96 9 30 8 39 -6 53 -9 9 -16 25 -16 36 0 16 7 19 40 19 36 0 40 3
40 25 0 28 -11 31 -40 13 -10 -7 -22 -10 -25 -7 -8 9 19 58 41 74 17 13 -20
14 -276 15 -217 0 -302 -4 -320 -13z m537 -94 c4 -11 -64 -39 -73 -30 -3 3 0
15 6 27 12 23 60 25 67 3z m-477 -24 c0 -11 -5 -30 -11 -41 -9 -16 -7 -26 10
-49 26 -34 27 -48 4 -51 -59 -5 -88 23 -96 92 -6 56 3 68 53 68 34 1 40 -3 40
-19z m360 -18 c0 -5 -11 -16 -25 -25 -29 -19 -33 -11 -8 16 17 19 33 24 33 9z
m-105 -243 c33 -15 35 -52 3 -43 -13 4 -34 14 -47 22 -19 12 -21 17 -10 24 18
11 23 11 54 -3z"/>
<path d="M4052 3218 c-15 -32 -23 -180 -15 -273 6 -72 7 -76 27 -70 56 18 61
16 79 -17 l19 -33 20 28 c13 18 29 27 48 27 26 0 59 -21 61 -38 0 -4 2 -22 5
-39 5 -45 -29 -68 -90 -60 -32 5 -47 2 -56 -8 -18 -22 -4 -48 23 -42 107 26
173 38 200 35 40 -4 65 -46 66 -110 1 -46 0 -48 -26 -44 -16 2 -36 7 -46 11
-25 10 -87 -3 -94 -21 -3 -9 -13 -12 -24 -9 -14 5 -22 -1 -31 -19 -11 -27 -30
-36 -26 -13 2 7 -9 13 -27 15 -27 2 -28 1 -12 -11 9 -8 17 -19 17 -26 0 -16
-30 -14 -36 3 -4 11 -20 14 -65 11 -32 -2 -64 -7 -69 -10 -6 -4 -23 -2 -38 4
-24 10 -35 8 -75 -14 -55 -28 -89 -32 -107 -10 -7 8 -18 15 -25 15 -7 0 -18
-7 -25 -15 -7 -8 -21 -15 -32 -15 -35 0 -114 -48 -171 -105 -45 -43 -56 -61
-52 -78 6 -26 -30 -90 -48 -84 -7 2 -12 18 -13 36 -2 49 -17 58 -59 35 -31
-17 -35 -23 -35 -60 0 -23 9 -61 20 -85 23 -51 24 -70 9 -138 -7 -35 -16 -52
-30 -56 -16 -5 -19 -16 -19 -71 0 -35 3 -64 6 -64 4 0 38 9 75 20 56 17 72 26
84 50 8 16 26 46 40 66 31 45 33 84 5 84 -10 0 -24 9 -30 19 -13 25 -13 88 0
96 6 4 24 30 41 60 39 69 91 122 129 130 17 4 38 18 47 31 14 22 22 25 62 22
l46 -3 3 -47 c2 -26 -2 -57 -8 -69 -10 -18 -8 -25 15 -49 38 -40 32 -83 -13
-90 -25 -4 -39 -16 -62 -50 -17 -25 -30 -51 -30 -57 0 -22 69 -90 113 -113 26
-13 75 -24 130 -30 103 -10 164 -23 262 -53 46 -14 96 -22 145 -22 74 0 75 0
90 -32 11 -23 31 -39 75 -58 33 -15 89 -41 125 -57 85 -40 203 -79 265 -89 28
-4 70 -13 95 -19 25 -7 59 -13 75 -14 17 -1 50 -8 75 -15 29 -9 74 -12 129 -8
83 5 86 6 118 42 19 21 33 31 33 23 0 -8 10 -23 21 -34 12 -10 25 -29 30 -41
6 -15 17 -23 33 -23 14 0 31 -9 40 -21 8 -12 27 -30 41 -39 33 -22 16 -37 -23
-21 -15 6 -43 12 -62 13 -30 3 -35 7 -38 31 -2 15 -8 27 -13 27 -6 0 -8 -8 -4
-19 3 -11 0 -21 -9 -24 -32 -12 -307 11 -396 33 -19 5 -87 21 -150 36 -103 24
-336 117 -364 145 -6 5 -18 9 -27 9 -10 0 -32 12 -49 26 -17 15 -52 31 -78 36
-47 9 -119 23 -202 38 -25 5 -70 14 -100 20 -30 6 -90 15 -132 20 -42 5 -95
18 -117 29 -22 12 -45 21 -51 21 -20 0 -9 -50 19 -82 15 -18 36 -47 45 -65 19
-38 36 -50 46 -34 11 19 26 -8 33 -56 6 -48 53 -115 96 -137 22 -12 66 -51
108 -97 7 -8 22 -23 33 -33 11 -11 20 -31 20 -45 0 -21 -2 -23 -10 -11 -9 13
-11 13 -20 0 -5 -8 -8 -20 -6 -26 2 -6 1 -16 -4 -23 -5 -9 -10 -4 -14 16 l-8
28 -13 -25 -14 -25 -1 23 c0 37 -30 80 -51 75 -10 -3 -33 7 -52 21 -19 14 -37
26 -40 26 -18 0 -3 -27 36 -64 49 -49 89 -106 107 -156 7 -19 16 -39 20 -43
10 -12 60 32 60 53 0 10 5 22 10 25 6 3 10 23 11 43 0 20 3 30 6 22 4 -8 14
-21 25 -28 10 -7 18 -20 18 -28 0 -8 14 -20 31 -26 l30 -10 -31 -19 c-17 -11
-41 -19 -54 -19 -12 0 -31 -9 -41 -20 -10 -11 -24 -20 -32 -20 -8 0 -32 -19
-53 -42 -43 -47 -51 -39 -21 22 l19 39 -27 24 c-14 13 -47 30 -72 37 -50 15
-79 50 -79 98 0 24 -22 64 -75 139 -8 12 -25 23 -37 25 -21 3 -23 10 -28 78
-5 68 -11 85 -63 180 -32 57 -63 108 -70 112 -20 13 -72 9 -113 -9 -36 -15
-126 -38 -201 -50 l-33 -5 0 -187 c0 -124 4 -181 10 -171 5 8 10 27 10 41 0
14 12 54 27 90 14 35 29 84 34 109 14 86 24 100 67 100 26 0 45 7 57 20 18 20
45 27 45 11 0 -5 -7 -25 -15 -44 -8 -20 -15 -50 -15 -66 0 -45 -10 -61 -37
-61 -22 0 -24 -4 -23 -37 3 -62 1 -83 -10 -83 -5 0 -10 9 -10 20 0 38 -16 20
-43 -50 -15 -40 -27 -89 -27 -115 0 -26 -5 -56 -11 -67 -13 -24 -33 -538 -21
-550 9 -9 117 -12 202 -5 56 4 71 2 106 -19 30 -18 56 -24 98 -24 32 0 66 -5
77 -10 10 -6 45 -14 77 -18 53 -6 57 -9 60 -35 2 -17 -2 -29 -12 -33 -20 -8
-121 13 -179 37 -29 12 -80 22 -124 24 -41 3 -79 8 -85 11 -6 4 -66 8 -134 9
l-124 3 0 -239 c0 -196 2 -239 14 -239 7 0 19 7 26 15 7 8 19 15 26 15 8 0 24
11 36 25 12 14 27 25 34 25 27 0 43 29 34 61 -8 28 -6 34 28 65 25 23 47 34
67 34 40 0 57 -17 44 -42 -13 -24 -3 -55 21 -68 17 -9 24 -4 49 30 25 34 30
38 41 25 11 -13 11 -20 1 -39 -18 -33 -10 -59 20 -70 43 -15 59 -2 59 47 0 24
3 46 6 49 11 12 58 -22 70 -51 13 -31 67 -66 85 -56 5 4 16 -10 24 -29 9 -20
21 -36 28 -36 32 0 157 46 153 56 -6 15 25 44 47 44 9 0 22 -8 29 -19 10 -14
23 -18 57 -15 24 1 47 8 51 14 5 9 17 9 44 1 l37 -10 -19 33 c-25 42 -15 61
32 58 19 -1 37 2 41 8 3 5 16 10 29 10 13 0 30 8 39 18 15 17 15 19 -5 36
l-22 19 28 23 c15 13 38 24 51 24 13 0 27 5 30 10 9 15 35 12 35 -4 0 -8 -15
-26 -32 -40 -26 -20 -30 -28 -21 -37 10 -10 21 -10 53 1 46 15 65 34 74 73 9
38 33 34 51 -10 17 -39 16 -41 -17 -57 -13 -6 -24 -20 -26 -31 -2 -11 -11 -28
-20 -37 -14 -16 -13 -20 3 -38 22 -24 13 -39 -10 -16 -9 9 -19 17 -23 17 -52
9 -73 8 -69 -4 2 -6 12 -11 21 -9 10 2 20 -7 26 -24 11 -27 5 -63 -7 -50 -3 3
-16 0 -28 -8 -27 -18 -127 -39 -147 -31 -19 8 -31 47 -17 56 6 3 5 10 -4 17
-11 9 -16 7 -25 -14 -7 -14 -12 -33 -12 -42 0 -13 -21 -24 -80 -43 l-80 -26
-25 29 c-14 16 -25 35 -25 41 0 22 -20 -18 -20 -40 0 -13 -4 -23 -8 -23 -4 0
-8 -18 -9 -40 -2 -39 -1 -40 33 -40 22 0 37 6 40 15 4 8 12 15 19 15 7 0 15
-7 19 -15 6 -16 81 -22 90 -6 3 4 26 14 51 21 25 7 48 17 51 21 9 16 89 31
158 31 47 -1 82 5 110 18 29 13 70 19 146 22 l105 3 9 -63 9 -62 78 0 c44 0
79 4 79 9 0 5 -4 21 -10 35 -13 35 -2 33 42 -9 33 -32 40 -34 59 -23 17 10 23
10 26 1 5 -15 153 -18 153 -4 0 5 -16 30 -35 55 -29 39 -35 54 -35 96 0 51 -6
60 -28 38 -9 -9 -12 -8 -16 3 -2 8 -9 30 -16 49 -6 19 -14 80 -17 134 -5 88
-9 103 -32 130 -15 17 -32 44 -39 59 -15 35 -16 91 -1 82 16 -11 99 81 99 110
0 26 -9 29 -47 19 -26 -7 -31 -24 -7 -24 23 0 12 -23 -19 -38 -15 -7 -27 -19
-27 -27 0 -31 -28 -1 -44 47 -20 64 -20 68 3 68 10 0 32 16 47 35 16 19 42 51
57 70 18 22 38 35 52 35 32 0 38 13 36 80 -1 74 15 95 70 86 21 -3 40 -2 43 3
3 5 -14 25 -38 45 -40 33 -50 36 -114 38 -54 1 -78 -3 -111 -20 -38 -20 -44
-21 -64 -7 -26 18 -51 19 -77 3 -26 -17 -38 -3 -42 47 l-3 40 45 3 c24 2 50 8
57 14 7 5 22 6 35 2 13 -4 56 -7 96 -6 59 2 89 -3 159 -28 102 -35 133 -38
133 -12 0 10 -5 23 -12 30 -6 6 -10 14 -7 16 8 8 184 10 209 2 14 -5 45 -27
70 -51 53 -51 99 -64 136 -41 20 14 22 20 14 36 -16 30 -12 46 16 58 25 12 25
13 8 41 -9 16 -14 36 -11 44 6 17 83 44 94 33 4 -3 -4 -31 -17 -62 -20 -49
-21 -58 -8 -70 20 -20 47 -7 54 25 8 41 20 56 40 53 77 -15 100 -13 132 11 17
13 48 45 68 71 29 38 32 47 20 52 -9 3 -24 3 -33 -2 -31 -13 -57 -12 -75 3 -9
8 -25 13 -35 11 -24 -5 -22 -64 4 -84 13 -11 14 -14 3 -13 -8 1 -23 -1 -32 -5
-30 -14 -47 1 -74 64 -25 56 -28 59 -43 42 -9 -10 -29 -26 -44 -36 -16 -10
-36 -31 -45 -47 -22 -37 -31 -36 -65 6 -56 70 -108 82 -121 29 l-7 -26 -21 23
c-30 35 -78 140 -78 172 0 20 6 30 20 34 27 7 25 17 -5 31 -19 9 -25 9 -25 0
0 -25 -53 -78 -102 -101 l-52 -25 -33 22 c-35 22 -42 40 -20 49 11 4 13 25 10
89 l-4 83 21 -27 c12 -16 28 -28 35 -28 24 0 48 52 47 102 -1 42 2 48 19 48
23 0 55 32 70 70 8 22 14 25 45 22 29 -4 35 -8 31 -22 -3 -11 5 -27 21 -40
l25 -22 -7 25 c-8 34 26 47 56 21 20 -18 20 -27 3 -95 -6 -24 -4 -26 17 -22
21 4 27 -1 41 -38 14 -36 19 -40 32 -29 8 7 15 18 15 25 0 7 16 27 35 44 36
31 65 40 65 20 0 -12 -33 -58 -66 -92 -11 -12 -24 -33 -27 -47 -4 -14 -17 -38
-30 -54 -21 -26 -26 -27 -57 -18 -19 5 -43 13 -52 17 -13 5 -18 2 -18 -9 0 -9
6 -19 14 -22 8 -3 25 -22 39 -43 25 -37 100 -81 115 -67 4 4 7 33 7 64 0 45 3
57 17 60 9 2 19 -5 23 -17 3 -10 17 -26 30 -35 l25 -16 0 37 c0 55 13 70 36
45 l19 -20 25 21 c51 44 59 67 100 262 13 63 28 95 44 95 13 0 56 93 56 123 0
18 38 77 50 77 5 0 25 -13 43 -30 19 -16 41 -30 49 -30 8 0 19 -5 25 -11 15
-15 -14 -74 -50 -106 -14 -12 -31 -39 -36 -60 -6 -21 -24 -53 -40 -71 -16 -18
-33 -47 -37 -65 -3 -17 -11 -39 -17 -49 -8 -13 -8 -30 2 -65 8 -26 17 -74 21
-106 9 -69 18 -80 70 -96 50 -15 70 -4 98 55 20 41 22 42 61 37 l41 -6 0 557
-1 556 -27 -6 c-15 -4 -34 -12 -42 -19 -8 -7 -25 -16 -37 -19 -11 -4 -24 -13
-27 -21 -7 -20 -32 -19 -40 1 -3 9 -6 51 -6 95 0 69 2 79 18 79 11 0 23 13 31
35 l12 35 60 -7 59 -6 0 132 0 133 -29 29 c-16 16 -34 29 -39 29 -6 0 -13 -19
-17 -42 -4 -24 -19 -63 -34 -88 -16 -25 -40 -66 -54 -91 -15 -26 -41 -59 -58
-73 -30 -25 -32 -26 -50 -10 -19 17 -19 18 6 58 31 50 115 223 115 236 0 6 -9
10 -20 10 -11 0 -20 -4 -20 -9 0 -5 -20 -40 -45 -77 -70 -103 -85 -146 -94
-259 -6 -88 -12 -109 -39 -157 -18 -30 -32 -69 -32 -86 0 -36 -36 -65 -46 -38
-3 8 -22 24 -41 36 -32 19 -35 24 -29 54 6 32 4 35 -27 45 -18 6 -51 27 -72
46 -20 19 -39 35 -41 35 -6 0 39 -95 52 -111 19 -22 18 -37 -8 -87 -17 -31
-31 -45 -51 -49 -33 -7 -31 -22 8 -43 40 -22 52 -44 35 -65 -19 -23 -89 -57
-105 -51 -22 8 -47 66 -41 91 4 14 0 29 -7 37 -8 7 -17 20 -20 28 -3 8 -3 -9
0 -37 5 -50 4 -53 -17 -53 -13 0 -29 8 -36 18 -19 26 -50 3 -46 -34 5 -44 26
-59 80 -57 59 2 75 -10 66 -51 -9 -44 -19 -52 -49 -36 -34 18 -41 7 -21 -34 9
-19 16 -40 16 -48 -1 -19 -57 -71 -69 -63 -6 3 -9 10 -7 14 3 4 1 13 -4 21 -7
11 -11 11 -24 1 -21 -17 -20 -31 1 -46 16 -12 16 -15 1 -51 -9 -22 -19 -51
-22 -66 -4 -17 -13 -28 -22 -28 -14 0 -15 9 -9 65 8 74 3 77 -54 40 -39 -26
-61 -61 -61 -96 0 -27 -43 -46 -73 -32 -40 20 -62 26 -104 29 -37 3 -44 -1
-67 -31 -14 -18 -26 -37 -26 -42 0 -4 -39 -50 -85 -101 -47 -51 -85 -97 -85
-102 0 -6 -7 -10 -15 -10 -21 0 -19 33 5 72 11 18 20 39 20 47 0 7 30 73 67
145 36 72 71 149 78 170 14 47 26 54 50 30 17 -17 18 -17 31 1 20 27 17 45 -6
45 -26 0 -70 66 -70 107 0 22 -5 33 -14 33 -25 0 -31 -22 -31 -124 0 -78 -3
-100 -15 -106 -8 -4 -25 -12 -37 -18 -53 -28 -75 -11 -88 66 -5 34 -3 47 11
63 16 18 27 61 40 154 6 47 -13 89 -41 93 -32 4 -47 -12 -55 -59 -7 -38 -5
-47 13 -67 21 -23 24 -50 14 -132 -3 -25 -6 -51 -6 -57 -1 -7 -10 -13 -20 -13
-17 0 -20 8 -23 53 -3 51 -4 52 -32 49 -28 -4 -28 -3 -21 35 3 21 13 45 22 55
13 14 12 17 -7 23 -25 8 -40 43 -40 95 0 21 -4 42 -10 45 -5 3 -10 -3 -10 -14
0 -11 -4 -23 -10 -26 -5 -3 -10 -30 -10 -59 0 -43 -5 -57 -24 -76 -29 -26 -51
-22 -68 15 -14 32 -28 32 -28 1 0 -32 -12 -39 -80 -43 -56 -3 -120 22 -120 48
0 33 45 81 99 105 18 9 49 30 67 47 18 18 46 43 60 56 l28 24 -30 23 c-39 32
-51 30 -67 -8 -8 -18 -22 -40 -31 -48 -10 -8 -22 -24 -27 -37 -11 -29 -29 -30
-29 -2 0 19 -4 20 -34 15 -45 -9 -58 11 -25 36 85 66 129 104 129 114 0 6 -11
21 -25 34 -16 15 -25 34 -25 54 0 20 -10 41 -32 63 -28 29 -30 33 -12 33 12 0
29 -9 40 -21 20 -22 57 -20 122 7 28 11 32 17 27 36 -4 13 -14 30 -21 39 -24
26 -17 42 14 34 15 -3 36 -8 47 -11 14 -3 35 6 59 26 36 28 41 29 62 15 21
-14 25 -13 58 18 30 28 36 42 42 95 3 34 11 62 15 62 11 0 11 -34 0 -81 -10
-43 -5 -53 29 -64 14 -4 41 -18 60 -31 21 -14 61 -26 102 -32 80 -10 84 -8
142 103 20 39 46 78 57 87 19 16 19 17 -15 33 -19 9 -45 15 -58 13 -24 -3 -25
-8 -46 -128 -6 -36 -12 -46 -30 -48 -12 -2 -35 6 -50 17 -29 20 -82 113 -82
144 0 16 -36 17 -583 17 l-584 0 -11 -22z m1745 -770 c-3 -7 -5 -2 -5 12 0 14
2 19 5 13 2 -7 2 -19 0 -25z m320 -8 c2 0 3 -21 3 -47 0 -30 -10 -68 -25 -102
-23 -48 -28 -53 -50 -47 -23 6 -25 4 -25 -26 0 -26 -11 -44 -59 -93 -33 -33
-67 -73 -76 -90 -16 -29 -16 -27 -13 69 l4 98 44 39 c24 22 50 39 56 39 22 0
67 72 66 104 0 17 1 41 4 53 4 19 7 21 36 12 18 -5 34 -9 35 -9z m443 -136 c0
-14 -14 -19 -35 -14 -5 1 -16 3 -22 3 -21 1 -15 23 10 34 24 12 47 0 47 -23z
m-2626 -10 c33 -13 -4 -34 -58 -34 l-51 1 35 19 c38 21 50 23 74 14z m2684
-65 c-2 -6 -8 -10 -13 -10 -5 0 -11 4 -13 10 -2 6 4 11 13 11 9 0 15 -5 13
-11z m-3238 -99 c0 -5 -5 -10 -11 -10 -5 0 -7 5 -4 10 3 6 8 10 11 10 2 0 4
-4 4 -10z m1610 -20 c0 -16 -4 -30 -10 -30 -11 0 -14 43 -3 53 11 12 13 8 13
-23z m-21 -129 c30 -23 23 -46 -16 -54 -37 -7 -43 -2 -43 39 0 40 20 45 59 15z
m-443 -218 c-10 -10 -19 5 -10 18 6 11 8 11 12 0 2 -7 1 -15 -2 -18z m844
-142 c0 -6 -4 -13 -10 -16 -5 -3 -10 1 -10 9 0 9 5 16 10 16 6 0 10 -4 10 -9z
m1166 -18 c-10 -10 -19 5 -10 18 6 11 8 11 12 0 2 -7 1 -15 -2 -18z m-1901
-174 c11 -17 -2 -22 -40 -15 -19 4 -33 11 -30 17 8 12 62 12 70 -2z m1225 -81
c0 -16 -2 -28 -4 -28 -11 0 -120 70 -111 71 6 1 22 0 36 -1 14 0 32 6 39 15
12 15 15 14 26 -7 8 -13 13 -35 14 -50z m-1124 47 c10 -8 14 -15 9 -15 -6 0
-15 4 -20 9 -6 5 -21 11 -35 14 l-25 4 26 2 c14 0 34 -6 45 -14z m-59 -69 c18
-11 33 -28 33 -36 0 -8 3 -31 6 -51 5 -31 1 -40 -36 -80 -28 -29 -40 -37 -36
-23 4 14 -4 32 -29 61 -19 23 -35 48 -35 57 0 9 -4 16 -9 16 -5 0 -13 -25 -16
-55 -7 -55 -11 -61 -31 -47 -41 27 -40 177 1 177 14 0 24 -11 32 -35 l11 -35
7 30 c15 61 36 65 102 21z m168 4 c10 -11 26 -20 37 -20 10 0 18 -4 18 -10 0
-18 -43 -10 -67 12 -13 12 -23 25 -23 30 0 14 16 9 35 -12z m-415 -120 c0 -5
-7 -10 -15 -10 -8 0 -15 5 -15 10 0 6 7 10 15 10 8 0 15 -4 15 -10z m-457
-113 c20 -34 39 -75 42 -90 4 -15 13 -27 21 -27 16 0 19 -47 4 -70 -5 -9 -5
-19 1 -27 13 -14 2 -36 -14 -30 -7 2 -12 15 -12 28 0 28 -23 35 -49 16 -20
-15 -17 -19 29 -52 16 -11 18 -16 8 -26 -7 -7 -13 -23 -13 -34 0 -22 -22 -48
-51 -58 -19 -6 -150 17 -179 33 -23 12 -25 30 -6 84 15 43 33 58 59 50 27 -8
33 24 8 50 -28 30 -27 67 4 96 27 25 32 46 13 52 -33 11 35 66 84 68 10 0 30
-24 51 -63z m-343 27 c34 -29 60 -73 60 -103 0 -14 -11 -23 -37 -31 -21 -7
-42 -16 -48 -21 -17 -17 -33 -9 -53 25 -16 27 -29 36 -73 46 -90 21 -115 43
-61 53 15 3 59 17 97 31 39 14 73 25 77 26 3 0 20 -12 38 -26z m178 -29 c2 -2
-7 -15 -19 -29 l-23 -26 -28 26 c-15 15 -25 31 -22 36 5 8 82 2 92 -7z m476
-37 c1 -2 8 -23 15 -47 11 -39 11 -45 -8 -62 -11 -10 -23 -35 -27 -55 -7 -36
-7 -36 -51 -31 -26 3 -54 14 -67 26 -12 11 -27 21 -33 21 -7 0 -15 9 -18 21
-5 15 -1 25 14 35 12 9 21 22 21 31 0 9 15 29 33 44 27 23 39 27 76 24 24 -2
44 -5 45 -7z m179 -30 c26 -15 51 -28 56 -28 4 0 21 -6 37 -14 16 -8 41 -19
57 -25 24 -9 27 -16 27 -53 0 -24 -3 -53 -6 -66 l-6 -23 -54 31 c-30 16 -60
30 -68 30 -8 0 -29 12 -46 26 -34 29 -40 28 -44 -8 -3 -27 -14 -48 -25 -48
-12 0 -58 100 -65 141 -5 27 -2 39 11 51 37 32 50 31 126 -14z m602 2 c3 -5 2
-10 -4 -10 -5 0 -13 5 -16 10 -3 6 -2 10 4 10 5 0 13 -4 16 -10z m30 -40 c3
-6 -1 -7 -9 -4 -18 7 -21 14 -7 14 6 0 13 -4 16 -10z m-985 -120 c0 -5 -4 -10
-10 -10 -5 0 -10 5 -10 10 0 6 5 10 10 10 6 0 10 -4 10 -10z m-654 -62 c8 -12
-24 -40 -41 -35 -5 2 -11 13 -13 25 -3 18 2 22 22 22 14 0 28 -5 32 -12z
m1184 -82 c31 -6 38 -13 63 -66 39 -87 38 -92 -39 -125 -58 -25 -68 -26 -91
-14 -33 18 -40 39 -18 55 13 10 18 27 18 76 0 35 -3 74 -8 88 -7 23 -7 24 16
9 13 -9 40 -19 59 -23z m198 -28 c13 -13 16 -48 5 -48 -19 1 -45 30 -40 45 8
18 19 19 35 3z m-403 -38 c-5 -8 -11 -8 -17 -2 -6 6 -7 16 -3 22 5 8 11 8 17
2 6 -6 7 -16 3 -22z m559 9 c5 -5 4 -15 -5 -25 -12 -15 -15 -14 -31 6 -10 12
-18 27 -18 32 0 10 39 1 54 -13z m-87 -9 c8 -12 9 -21 3 -25 -6 -3 -10 -15
-10 -27 0 -17 -2 -18 -15 -8 -18 15 -20 80 -2 80 7 0 18 -9 24 -20z m-857 -15
c0 -8 -4 -15 -10 -15 -5 0 -7 7 -4 15 4 8 8 15 10 15 2 0 4 -7 4 -15z m-25
-56 c6 -34 5 -36 -19 -36 -31 0 -44 14 -22 23 10 4 16 18 16 37 0 40 16 24 25
-24z m1034 25 c13 -30 9 -39 -14 -31 -15 7 -22 57 -7 57 5 0 14 -12 21 -26z
m-1455 -136 c23 -37 -35 -76 -70 -48 -17 15 -19 56 -1 64 23 9 60 1 71 -16z
m136 -65 c0 -7 -4 -13 -9 -13 -10 0 -21 25 -21 48 1 15 3 14 15 -2 8 -11 15
-26 15 -33z m90 -3 c0 -5 -15 -10 -34 -10 -19 0 -38 5 -41 10 -4 6 10 10 34
10 23 0 41 -4 41 -10z m120 -50 c0 -16 -4 -31 -9 -35 -14 -8 -33 32 -26 55 9
28 35 13 35 -20z m860 -121 c0 -23 -16 -25 -24 -3 -10 25 -7 34 9 28 8 -4 15
-15 15 -25z m-583 -171 c-3 -7 -5 -2 -5 12 0 14 2 19 5 13 2 -7 2 -19 0 -25z"/>
<path d="M5597 3223 c3 -10 12 -25 19 -33 7 -8 17 -42 23 -74 12 -64 7 -76
-35 -76 -46 0 -161 -117 -138 -140 12 -12 137 -24 169 -16 14 4 23 11 20 16
-11 17 7 170 19 170 6 0 21 7 33 15 19 13 21 19 11 40 -9 20 -8 28 7 45 12 13
15 27 11 45 -6 24 -10 25 -76 25 -62 0 -69 -2 -63 -17z"/>
<path d="M6284 3225 c21 -16 44 -19 70 -9 32 12 14 24 -36 24 -49 -1 -51 -2
-34 -15z"/>
<path d="M5910 3071 c0 -40 1 -42 18 -30 9 7 18 14 19 14 1 0 -7 14 -17 30
l-20 30 0 -44z"/>
<path d="M3952 3068 c-7 -9 -6 -28 3 -63 l14 -50 0 63 c1 65 0 69 -17 50z"/>
<path d="M5974 3065 c-10 -8 -14 -15 -8 -15 6 0 17 7 24 15 16 19 9 19 -16 0z"/>
<path d="M6189 3017 c-18 -18 -43 -44 -54 -57 -12 -14 -34 -35 -50 -47 l-30
-22 28 -10 c16 -6 34 -11 41 -11 15 0 66 61 91 110 10 19 22 38 28 41 10 7 1
29 -12 29 -4 0 -23 -15 -42 -33z"/>
<path d="M5852 2950 c0 -14 2 -19 5 -12 2 6 2 18 0 25 -3 6 -5 1 -5 -13z"/>
<path d="M5140 2946 c0 -21 26 -37 70 -43 32 -5 40 -3 40 10 0 9 -10 23 -22
31 -28 20 -88 21 -88 2z"/>
<path d="M6215 2872 c-3 -11 -17 -24 -30 -30 -25 -12 -33 -44 -17 -69 14 -22
70 36 78 80 5 29 3 37 -9 37 -9 0 -18 -8 -22 -18z"/>
<path d="M5706 2831 c-4 -6 -16 -9 -27 -6 -10 4 -25 1 -32 -6 -11 -11 -11 -18
1 -41 12 -25 12 -32 -2 -53 -25 -37 -53 -41 -85 -11 -34 33 -53 34 -46 3 4
-12 2 -34 -4 -48 -14 -39 -1 -49 58 -46 45 2 56 -2 72 -22 l19 -23 0 25 c0 14
5 29 10 32 6 3 10 19 10 35 0 27 22 46 41 34 5 -3 9 -27 9 -55 0 -53 7 -60 35
-29 22 24 58 26 76 4 21 -26 30 7 16 57 -14 47 -41 63 -50 29 -6 -24 -25 -26
-34 -4 -3 9 3 23 15 35 27 24 19 54 -9 38 -21 -11 -39 -5 -39 15 0 22 -26 50
-34 37z"/>
<path d="M3926 2821 c-7 -10 -11 -100 -5 -104 51 -30 67 -35 77 -25 6 6 21 12
34 13 32 2 34 23 2 35 -30 12 -49 32 -64 68 -10 22 -34 30 -44 13z"/>
<path d="M5881 2772 c-9 -17 -8 -39 4 -79 3 -8 12 -5 29 10 22 20 23 23 10 49
-19 36 -31 42 -43 20z"/>
<path d="M4904 2735 c-8 -21 4 -35 32 -35 29 0 32 25 5 40 -26 13 -31 13 -37
-5z"/>
<path d="M5448 2639 c-12 -19 -17 -20 -37 -9 -17 9 -29 9 -45 1 -11 -6 -33
-15 -49 -21 l-27 -10 26 -40 c15 -22 33 -40 40 -40 7 0 28 -13 46 -29 25 -22
36 -26 45 -17 7 6 22 20 33 31 17 16 23 17 29 6 7 -10 10 -10 16 -1 8 14 121
5 140 -10 6 -5 17 -5 25 1 12 7 11 10 -7 15 -13 4 -23 10 -23 14 0 13 -31 20
-48 11 -23 -12 -42 -3 -42 19 0 10 -4 22 -10 25 -5 3 -10 2 -10 -4 0 -15 -36
-32 -55 -25 -12 5 -15 17 -13 52 3 51 -11 64 -34 31z"/>
<path d="M4913 2624 c-7 -18 11 -39 26 -30 17 11 13 46 -4 46 -9 0 -18 -7 -22
-16z"/>
<path d="M5250 2501 c0 -11 26 -22 34 -14 3 3 3 10 0 14 -7 12 -34 11 -34 0z"/>
<path d="M3316 2425 c-20 -30 -21 -61 -1 -69 19 -7 45 31 45 66 0 35 -22 37
-44 3z"/>
<path d="M5745 2351 c-6 -5 -21 -11 -35 -13 -22 -3 -25 -8 -25 -43 0 -40 0
-40 35 -37 42 3 72 35 68 71 -3 27 -26 39 -43 22z"/>
<path d="M3637 2260 c-31 -36 -45 -118 -25 -149 16 -26 28 -27 29 -3 1 46 9
91 23 129 18 52 6 63 -27 23z"/>
<path d="M3572 1908 c-14 -14 -16 -38 -3 -38 15 0 30 25 22 38 -5 9 -10 9 -19
0z"/>
<path d="M8140 1659 c0 -5 5 -7 10 -4 6 3 10 8 10 11 0 2 -4 4 -10 4 -5 0 -10
-5 -10 -11z"/>
<path d="M8145 1630 c3 -5 8 -10 11 -10 2 0 4 5 4 10 0 6 -5 10 -11 10 -5 0
-7 -4 -4 -10z"/>
<path d="M6614 1535 c-9 -14 -24 -25 -34 -25 -20 0 -53 -43 -60 -80 -3 -15
-17 -31 -34 -39 l-29 -14 27 -19 c29 -22 58 -71 54 -91 -2 -6 9 -28 25 -48 15
-20 26 -47 26 -60 -1 -17 -3 -19 -6 -6 -7 25 -19 21 -33 -13 -13 -31 -7 -66 9
-55 6 3 14 -1 18 -10 7 -12 15 -9 46 19 36 32 37 35 37 98 0 60 -2 66 -19 61
-10 -3 -22 0 -25 6 -5 7 3 11 18 11 l26 0 0 145 c0 121 -2 145 -15 145 -8 0
-22 -11 -31 -25z m-38 -144 c-10 -16 -36 -13 -36 3 0 17 21 27 34 16 4 -5 5
-13 2 -19z"/>
<path d="M8142 1544 c4 -21 22 -23 26 -1 2 10 -3 17 -13 17 -10 0 -15 -6 -13
-16z"/>
<path d="M9626 1485 c3 -22 10 -48 15 -57 12 -22 31 -24 23 -3 -4 8 -10 15
-15 15 -5 0 -9 10 -10 23 0 12 -5 31 -10 42 -7 15 -8 9 -3 -20z"/>
<path d="M7970 1488 c0 -18 18 -34 28 -24 3 4 -2 14 -11 23 -16 16 -17 16 -17
1z"/>
<path d="M9620 1343 c0 -5 10 -24 22 -43 25 -41 36 -25 13 19 -14 28 -35 42
-35 24z"/>
<path d="M6362 1310 c-7 -11 -21 -20 -32 -20 -13 0 -24 -10 -30 -26 -9 -21
-15 -25 -35 -20 -21 5 -27 2 -35 -20 -7 -17 -15 -24 -25 -20 -8 3 -15 1 -15
-4 0 -6 7 -10 16 -10 8 0 30 -11 48 -25 18 -14 40 -25 48 -25 19 0 48 -32 48
-52 0 -9 -17 -27 -37 -39 -21 -12 -50 -33 -65 -45 -23 -19 -32 -21 -56 -12
-29 11 -72 73 -72 105 0 9 13 31 29 48 24 25 27 32 16 42 -11 10 -20 8 -44
-13 -17 -14 -35 -23 -41 -19 -6 3 -13 -1 -16 -9 -3 -9 -11 -16 -18 -16 -6 0
-37 -21 -70 -46 -32 -26 -70 -50 -84 -53 -14 -4 -36 -21 -49 -38 l-24 -31 28
-26 c15 -14 33 -26 39 -26 6 0 17 -7 25 -16 21 -26 67 -45 119 -48 28 -2 61
-11 75 -20 13 -9 33 -16 44 -16 11 0 32 -10 48 -23 71 -58 110 -66 151 -34 10
8 19 107 9 107 -2 0 -25 -7 -50 -16 -38 -13 -51 -14 -62 -4 -22 18 -19 31 14
66 17 17 37 48 45 68 34 81 76 87 76 11 0 -34 4 -45 15 -45 18 0 35 39 35 80
0 23 5 31 25 36 40 10 31 55 -16 79 -20 11 -30 12 -35 4 -4 -7 -15 -2 -31 15
-13 15 -28 24 -33 21 -17 -10 -32 33 -20 56 10 17 19 20 58 17 38 -2 46 0 43
12 -2 8 -6 27 -9 43 -5 32 -31 36 -50 7z"/>
<path d="M7975 1300 c4 -6 11 -8 16 -5 14 9 11 15 -7 15 -8 0 -12 -5 -9 -10z"/>
<path d="M8647 1274 c-8 -8 13 -52 28 -58 8 -3 10 4 7 20 -5 25 -25 48 -35 38z"/>
<path d="M5733 1187 c-30 -13 -29 -25 3 -37 44 -17 109 -12 129 10 18 20 17
20 -23 20 -22 0 -51 4 -64 9 -14 5 -32 4 -45 -2z"/>
<path d="M6701 1144 c0 -11 3 -14 6 -6 3 7 2 16 -1 19 -3 4 -6 -2 -5 -13z"/>
<path d="M5543 1110 c-5 -20 -10 -21 -50 -15 l-44 6 3 -33 c4 -42 25 -46 61
-13 16 16 36 25 50 23 18 -2 22 2 22 22 0 33 -34 41 -42 10z"/>
<path d="M6647 1093 c-4 -3 -7 -19 -7 -33 0 -19 -17 -47 -55 -89 -30 -34 -55
-70 -55 -80 0 -11 -9 -21 -21 -24 -16 -4 -19 -11 -14 -27 5 -15 1 -29 -13 -43
-10 -12 -49 -67 -86 -122 -119 -179 -187 -270 -203 -273 -13 -3 -14 2 -9 25
13 56 13 58 -25 61 -23 2 -42 -3 -52 -12 -9 -9 -20 -16 -26 -16 -19 0 -12 19
13 35 14 9 29 28 34 43 5 15 26 51 46 81 20 29 36 56 36 60 -1 17 -41 51 -60
51 -11 0 -34 7 -49 15 -29 15 -41 11 -41 -12 0 -7 11 -13 25 -13 25 0 29 -7
25 -47 -1 -12 3 -30 8 -39 7 -13 2 -25 -22 -50 l-31 -32 -65 10 -64 10 -29
-32 c-23 -26 -28 -40 -25 -67 3 -28 1 -34 -19 -39 -16 -4 -23 -14 -23 -29 0
-12 -7 -36 -15 -51 -29 -56 -21 -62 98 -88 l77 -17 0 -42 c0 -37 -5 -45 -35
-64 -19 -13 -50 -23 -69 -23 -40 0 -51 -12 -60 -62 l-7 -38 100 0 100 0 16 29
c8 16 33 50 55 76 27 31 40 56 40 75 0 20 6 31 20 35 11 3 29 18 40 32 17 22
20 23 20 7 0 -18 -17 -48 -55 -101 -11 -14 -13 -23 -6 -28 6 -3 15 5 21 19 11
29 28 34 36 11 6 -14 -41 -121 -57 -131 -32 -19 12 -24 217 -24 l226 0 29 29
29 29 0 511 c0 281 -1 511 -3 511 -2 0 -7 -3 -10 -7z m-108 -516 c10 -25 -10
-109 -27 -115 -13 -4 -18 102 -6 132 7 19 23 11 33 -17z m-257 -202 c-12 -22
-27 -2 -18 22 5 12 10 13 17 6 7 -7 8 -17 1 -28z m-163 -39 c3 -18 -22 -46
-41 -46 -12 0 -30 41 -24 56 9 23 60 14 65 -10z m281 -25 c0 -10 -7 -24 -15
-31 -8 -6 -40 -59 -72 -116 -62 -111 -87 -133 -72 -62 6 22 18 62 29 87 10 25
21 58 24 73 4 19 19 34 44 47 47 25 62 26 62 2z m-40 -226 c0 -35 -5 -40 -34
-29 -21 8 -20 34 2 50 26 21 32 17 32 -21z"/>
<path d="M7220 1071 c0 -43 118 -206 136 -188 12 11 -22 74 -50 92 -14 9 -37
37 -51 61 -25 43 -35 53 -35 35z"/>
<path d="M6455 980 c-4 -6 -1 -17 5 -26 14 -16 40 -2 40 22 0 16 -36 19 -45 4z"/>
<path d="M5733 908 c-10 -13 -37 -32 -61 -43 -30 -14 -46 -29 -54 -52 -8 -21
-19 -33 -30 -33 -10 0 -21 -6 -24 -14 -3 -8 -13 -12 -23 -9 -10 2 -24 -2 -32
-9 -8 -8 -22 -17 -31 -21 -10 -3 -18 -13 -18 -21 0 -9 -9 -20 -21 -26 -11 -7
-18 -14 -15 -18 7 -6 -33 -52 -45 -52 -5 0 -5 8 -2 17 5 12 -3 8 -22 -10 -17
-15 -35 -27 -42 -27 -19 0 -26 -20 -13 -36 9 -10 16 -11 25 -4 20 17 25 0 25
-87 0 -49 4 -83 10 -83 6 0 10 9 10 20 0 20 4 29 33 85 21 40 53 45 69 10 8
-18 16 -24 27 -19 9 3 22 7 29 7 7 0 11 6 8 14 -4 9 3 13 20 13 45 0 109 95
85 124 -9 11 -9 20 -2 34 12 23 6 32 -23 33 -21 0 -21 1 -1 8 11 5 25 5 31 0
8 -6 13 0 17 18 4 17 18 35 36 45 24 13 31 24 31 46 0 16 11 46 25 66 29 43
30 46 11 46 -8 0 -23 -10 -33 -22z"/>
<path d="M6420 859 c-17 -31 -9 -63 17 -67 18 -3 23 3 28 32 4 19 4 39 0 45
-10 18 -33 13 -45 -10z"/>
<path d="M5370 841 c0 -11 21 -19 38 -14 21 8 13 23 -13 23 -14 0 -25 -4 -25
-9z"/>
<path d="M6252 633 c-10 -4 -10 -8 -1 -19 15 -18 29 -18 29 0 0 18 -11 25 -28
19z"/>
<path d="M5571 466 c-21 -25 -3 -60 35 -72 19 -6 37 -7 40 -3 13 22 -26 89
-51 89 -7 0 -18 -6 -24 -14z"/>
<path d="M7202 285 l1 -130 9 109 c6 72 6 117 -1 130 -7 15 -9 -16 -9 -109z"/>
<path d="M5433 325 c0 -27 2 -38 4 -22 2 15 2 37 0 50 -2 12 -4 0 -4 -28z"/>
<path d="M6110 83 c0 -12 5 -25 11 -28 19 -12 22 3 5 27 l-16 22 0 -21z"/>
<path d="M8740 51 c0 -27 4 -31 26 -31 22 0 25 4 22 28 -2 19 -9 28 -25 30
-20 3 -23 -1 -23 -27z"/>
</g>
</svg>
